<mxfile host="app.diagrams.net" modified="2024-06-18T17:46:48.463Z" agent="Mozilla/5.0 (Windows NT 10.0; Win64; x64) AppleWebKit/537.36 (KHTML, like Gecko) Chrome/124.0.0.0 Safari/537.36" version="24.5.4" etag="xltZ4aVNpRYuBoE4Xgqp" type="github">
  <diagram name="Page-1" id="qKhqvAt-IcjSyUzgUXLW">
    <mxGraphModel>
      <root>
        <mxCell id="0" />
        <mxCell id="1" parent="0" />
      </root>
    </mxGraphModel>
  </diagram>
</mxfile>
